<?xml version="1.0" encoding="UTF-8"?>
<svg xmlns="http://www.w3.org/2000/svg" width="1600" height="450" viewBox="0 0 1600 450">
<defs>
<linearGradient id="bg" x1="0" y1="0" x2="1" y2="1">
<stop offset="0%" stop-color="#05070d"/>
<stop offset="100%" stop-color="#0d1320"/>
</linearGradient>
<filter id="glow" x="-50%" y="-50%" width="200%" height="200%">
<feGaussianBlur stdDeviation="3" result="b"/>
<feMerge><feMergeNode in="b"/><feMergeNode in="SourceGraphic"/></feMerge>
</filter>
<style><![CDATA[
.t{font-family:'Courier New',monospace;fill:#6ffcff}
.s{font-size:24px}
.h{font-size:82px;font-weight:bold}
.m{font-size:32px}
.small{font-size:22px}
.line{stroke:#23f5ff;stroke-width:2}
]]></style>
</defs>

<rect width="1600" height="450" fill="url(#bg)"/>

<g opacity="0.08">
<line x1="0" y1="0" x2="0" y2="450" stroke="#18d8ff"/>
<line x1="40" y1="0" x2="40" y2="450" stroke="#18d8ff"/>
<line x1="80" y1="0" x2="80" y2="450" stroke="#18d8ff"/>
<line x1="120" y1="0" x2="120" y2="450" stroke="#18d8ff"/>
<line x1="160" y1="0" x2="160" y2="450" stroke="#18d8ff"/>
<line x1="200" y1="0" x2="200" y2="450" stroke="#18d8ff"/>
<line x1="240" y1="0" x2="240" y2="450" stroke="#18d8ff"/>
<line x1="280" y1="0" x2="280" y2="450" stroke="#18d8ff"/>
<line x1="320" y1="0" x2="320" y2="450" stroke="#18d8ff"/>
<line x1="360" y1="0" x2="360" y2="450" stroke="#18d8ff"/>
<line x1="400" y1="0" x2="400" y2="450" stroke="#18d8ff"/>
<line x1="440" y1="0" x2="440" y2="450" stroke="#18d8ff"/>
<line x1="480" y1="0" x2="480" y2="450" stroke="#18d8ff"/>
<line x1="520" y1="0" x2="520" y2="450" stroke="#18d8ff"/>
<line x1="560" y1="0" x2="560" y2="450" stroke="#18d8ff"/>
<line x1="600" y1="0" x2="600" y2="450" stroke="#18d8ff"/>
<line x1="640" y1="0" x2="640" y2="450" stroke="#18d8ff"/>
<line x1="680" y1="0" x2="680" y2="450" stroke="#18d8ff"/>
<line x1="720" y1="0" x2="720" y2="450" stroke="#18d8ff"/>
<line x1="760" y1="0" x2="760" y2="450" stroke="#18d8ff"/>
<line x1="800" y1="0" x2="800" y2="450" stroke="#18d8ff"/>
<line x1="840" y1="0" x2="840" y2="450" stroke="#18d8ff"/>
<line x1="880" y1="0" x2="880" y2="450" stroke="#18d8ff"/>
<line x1="920" y1="0" x2="920" y2="450" stroke="#18d8ff"/>
<line x1="960" y1="0" x2="960" y2="450" stroke="#18d8ff"/>
<line x1="1000" y1="0" x2="1000" y2="450" stroke="#18d8ff"/>
<line x1="1040" y1="0" x2="1040" y2="450" stroke="#18d8ff"/>
<line x1="1080" y1="0" x2="1080" y2="450" stroke="#18d8ff"/>
<line x1="1120" y1="0" x2="1120" y2="450" stroke="#18d8ff"/>
<line x1="1160" y1="0" x2="1160" y2="450" stroke="#18d8ff"/>
<line x1="1200" y1="0" x2="1200" y2="450" stroke="#18d8ff"/>
<line x1="1240" y1="0" x2="1240" y2="450" stroke="#18d8ff"/>
<line x1="1280" y1="0" x2="1280" y2="450" stroke="#18d8ff"/>
<line x1="1320" y1="0" x2="1320" y2="450" stroke="#18d8ff"/>
<line x1="1360" y1="0" x2="1360" y2="450" stroke="#18d8ff"/>
<line x1="1400" y1="0" x2="1400" y2="450" stroke="#18d8ff"/>
<line x1="1440" y1="0" x2="1440" y2="450" stroke="#18d8ff"/>
<line x1="1480" y1="0" x2="1480" y2="450" stroke="#18d8ff"/>
<line x1="1520" y1="0" x2="1520" y2="450" stroke="#18d8ff"/>
<line x1="1560" y1="0" x2="1560" y2="450" stroke="#18d8ff"/>
<line x1="1600" y1="0" x2="1600" y2="450" stroke="#18d8ff"/>
<line x1="0" y1="0" x2="1600" y2="0" stroke="#18d8ff"/>
<line x1="0" y1="40" x2="1600" y2="40" stroke="#18d8ff"/>
<line x1="0" y1="80" x2="1600" y2="80" stroke="#18d8ff"/>
<line x1="0" y1="120" x2="1600" y2="120" stroke="#18d8ff"/>
<line x1="0" y1="160" x2="1600" y2="160" stroke="#18d8ff"/>
<line x1="0" y1="200" x2="1600" y2="200" stroke="#18d8ff"/>
<line x1="0" y1="240" x2="1600" y2="240" stroke="#18d8ff"/>
<line x1="0" y1="280" x2="1600" y2="280" stroke="#18d8ff"/>
<line x1="0" y1="320" x2="1600" y2="320" stroke="#18d8ff"/>
<line x1="0" y1="360" x2="1600" y2="360" stroke="#18d8ff"/>
<line x1="0" y1="400" x2="1600" y2="400" stroke="#18d8ff"/>
<line x1="0" y1="440" x2="1600" y2="440" stroke="#18d8ff"/>
</g>

<rect x="25" y="25" width="1550" height="400" rx="10" fill="none" stroke="#23f5ff" stroke-width="2"/>

<text class="t s" x="800" y="70" text-anchor="middle" filter="url(#glow)">
&gt; Initializing profile...
</text>

<rect x="450" y="95" width="700" height="18" rx="9" fill="#123"/>
<rect x="450" y="95" width="0" height="18" rx="9" fill="#23f5ff">
<animate attributeName="width" from="0" to="700" dur="3s" fill="freeze"/>
</rect>

<text class="t h" x="800" y="220" text-anchor="middle" filter="url(#glow)">
WELCOME
</text>

<text class="t m" x="800" y="270" text-anchor="middle">
TO MAURO PÉREZ'S PROFILE
</text>

<text class="t small" x="800" y="320" text-anchor="middle">
Automation • AI • Python • Power BI • SQL • Docker • n8n
</text>

<text class="t small" x="800" y="370" text-anchor="middle">
SYSTEM STATUS: ONLINE
</text>

<rect x="945" y="350" width="12" height="24" fill="#23f5ff">
<animate attributeName="opacity" values="1;0;1" dur="1s" repeatCount="indefinite"/>
</rect>

<circle cx="1450" cy="60" r="6" fill="#00ff88">
<animate attributeName="opacity" values="1;.3;1" dur="1.5s" repeatCount="indefinite"/>
</circle>

</svg>
